PathFileType	4	(X/Y/Z)	Patient4_TMGait_0pt6_01_left_47.trc.trc
DataRate	CameraRate	NumFrames	NumMarkers	Units	OrigDataRate	OrigDataStartFrame	OrigNumFrames
79.545454545455	79.545454545455	6	33	mm	79.545454545455	36	       141
Frame#	Time	Sacral			L.Shoulder			Chest			R.Shoulder			Neck			R.ASIS			L.ASIS			R.Thigh.Superior			R.Thigh.Lateral			R.Thigh.Inferior			R.Patella			L.Thigh.Superior			L.Thigh.Lateral			L.Thigh.Inferior			L.Patella			L.Shank.Superior			L.Shank.Lateral			L.Shank.Inferior			R.Shank.Superior			R.Shank.Lateral			R.Shank.Inferior			R.Heel			R.Midfoot.Superior			R.Midfoot.Lateral			R.Toe			L.Heel			L.Midfoot.Lateral			L.Midfoot.Superior			L.Toe			L.Elbow			L.Wrist			R.Elbow			R.Wrist			
		X1	Y1	Z1	X2	Y2	Z2	X3	Y3	Z3	X4	Y4	Z4	X5	Y5	Z5	X6	Y6	Z6	X7	Y7	Z7	X8	Y8	Z8	X9	Y9	Z9	X10	Y10	Z10	X11	Y11	Z11	X12	Y12	Z12	X13	Y13	Z13	X14	Y14	Z14	X15	Y15	Z15	X16	Y16	Z16	X17	Y17	Z17	X18	Y18	Z18	X19	Y19	Z19	X20	Y20	Z20	X21	Y21	Z21	X22	Y22	Z22	X23	Y23	Z23	X24	Y24	Z24	X25	Y25	Z25	X26	Y26	Z26	X27	Y27	Z27	X28	Y28	Z28	X29	Y29	Z29	X30	Y30	Z30	X31	Y31	Z31	X32	Y32	Z32	X33	Y33	Z33	

36	57.620000000000	798.471454673698	1006.297687294971	445.043410597500	938.926223757657	1434.767178869657	259.459031105079	1063.095395422175	1366.831850588764	404.802448472911	1000.223917792871	1436.712830043943	587.718679618112	938.182934801042	1492.048944476554	414.387939842438	1029.045755872795	935.415803026716	543.035161447475	998.566775262366	960.802043889307	271.299598964226	1034.718591713294	722.304793300042	521.585907160005	936.544085118267	625.947049562563	585.713583697538	1004.702545172837	557.711148049036	510.674826428419	984.335803663790	456.241162839057	526.694877819784	1070.716105083037	763.882213279211	305.175543007696	998.677764657377	636.389007617178	247.292637812417	1095.855475443466	570.715684949502	308.822848111529	1106.443668045990	499.745773227205	317.604327834309	1083.176385452591	425.132343960253	311.988277224469	1000.119833992877	304.644292425156	265.685731858848	1061.068092952281	197.518165267599	334.445550894025	915.155435481566	387.659513575998	532.431112770813	801.506920600858	329.404310293323	590.785580420273	803.184192625985	220.936953600893	536.751150385743	615.087348217847	112.480866326652	499.818630331498	789.777944176274	107.758173396673	550.453092201224	684.181257917953	74.178372205115	577.333844459944	882.212286023398	34.595319302788	582.904260240254	943.625827242806	38.827813307090	381.132662940929	1015.053671380191	36.106827421723	298.241126213842	1098.387151433347	97.748233072716	322.233789268458	1226.526145716238	45.220104287270	290.196154582602	860.199513694409	1083.888364554789	160.478785255742	888.674022329351	825.659731062294	158.801955030885	1089.554538651123	1098.318592471671	693.968907297361	1328.960781658224	1110.248353047681	621.132982370354	
37	57.632571428571	798.448418896158	1007.511315179423	441.516046048570	940.370828793932	1436.509764388450	257.026845741641	1063.354822558676	1368.287600204440	403.225734603652	999.028446514689	1437.827969307966	585.703306485838	938.224932598416	1493.416572386916	412.120557524379	1028.663231059331	937.033641121607	540.582681564249	999.362080350650	962.055062621370	268.826027188739	1038.983316143437	724.508638701058	519.640471054171	943.421885013059	626.352082518525	584.136875610208	1013.713429789854	558.973438590120	509.486455720631	994.416585738716	455.807292863336	526.947574541841	1069.495543168259	763.192174763775	301.909679574616	994.977288132886	636.497039610155	245.431973193350	1091.276138728339	569.722578097182	306.754611984214	1100.916130185496	499.064224665859	316.195166706217	1077.452945360885	424.700707194748	310.728347451126	993.984171384116	304.455809520934	264.644748902180	1054.237711065353	197.332811189841	333.985424131236	922.740034178646	388.381802707268	532.388953228156	806.703739447793	334.526797651672	590.272071035930	805.304129457753	225.547413445823	537.308239995687	613.740955918781	125.516451269019	500.206866710200	787.536780298421	110.800284166530	550.978056819809	680.463424613811	83.005257742055	577.581325181986	875.102408427975	33.648599160234	583.116587005347	936.138235240115	38.836429511636	381.057050476636	1007.539261916060	36.031109718626	298.147750201591	1090.891272813816	97.696067487843	322.087787677473	1219.061731157343	45.080371906217	290.057189517521	867.105047564826	1084.564122230959	156.220572854514	906.082907683888	827.543222755727	154.023772783369	1080.045502392661	1096.605650848865	691.278291992873	1321.241064885570	1091.646793827335	621.299037379721	
38	57.645142857143	798.219718969970	1008.464398901120	438.077920039198	941.885376870352	1437.984610083905	254.600451107136	1063.557382699670	1369.470044511386	401.750318155289	997.668621908341	1438.656860096522	583.753373778571	938.246896973214	1494.556384466969	409.880341706750	1028.100206978041	938.432757924416	538.317307206609	999.977370675529	963.029941620022	266.510318233787	1043.582452169567	726.776708478075	517.780961401225	950.853644232966	626.706622717752	582.618374333025	1023.252294470341	560.368008667593	508.229802562542	1005.093956870929	455.603930148918	526.879043341895	1068.011837074960	762.306838288563	298.787258887967	991.197612523281	636.556257327101	243.529517395108	1086.577070396025	568.702365680067	304.720787491704	1095.265626573335	498.326294900022	314.704207930991	1071.620021128024	424.208473567279	309.394816964644	987.717270682425	304.196377995770	263.570083198341	1047.320435856214	197.082518849092	333.476469148370	931.079714102597	389.223086268185	532.104315200059	812.865665899625	339.846994443545	589.633145755977	808.211683448405	230.540601644442	537.681852671280	613.530747256389	139.425025931096	500.472280671057	785.905392356123	114.450625542653	551.296477306963	677.596762880430	92.832968564303	577.763811294347	868.280681016735	32.645264322369	583.355871528683	928.565704072989	38.830470442313	380.986197455089	999.943837439047	35.923104985637	298.059794340136	1083.347229887505	97.570829342985	321.967798095878	1211.537698963480	44.825880302489	289.964106904821	874.181763809561	1085.149476237400	151.728533199683	924.168367385392	829.848987226353	149.233868469849	1070.259330647957	1094.857866763425	688.685369840858	1312.184237598834	1072.237757716988	621.786967257348	
39	57.657714285714	797.787833243118	1009.131338584831	434.765903100003	943.423748140822	1439.150461326355	252.208132596298	1063.690856176302	1370.349559976287	400.381737396810	996.172065169109	1439.182861111513	581.889079740978	938.252510068437	1495.447806767344	407.694724860778	1027.358759773208	939.574763246888	536.233735997558	1000.396329764492	963.726409087090	264.344965438824	1048.399885736086	729.122120362449	515.969688171073	958.714646877725	627.066187302113	581.123734189592	1033.149644758351	561.950962253538	506.857391721747	1016.240360358534	455.685543574637	526.432677571131	1066.327967725593	761.295493609222	295.863776896862	987.463538273371	636.581268662641	241.596193932147	1081.884933312438	567.682596098364	302.750422140623	1089.630068424428	497.544965921691	313.168795733855	1065.803833740217	423.659220517342	308.024656366437	981.437251091952	303.889315016270	262.472278590869	1040.384901461027	196.772969289429	332.935168088966	940.065266371089	390.221894180857	531.529606423607	819.919953377828	345.313422508057	588.847072126235	811.890395125143	235.879538281574	537.827254520484	614.515216771182	153.946227349148	500.606754868716	784.990625749455	118.737809214946	551.401141795514	675.723087726667	103.491147307434	577.860520743317	861.950627403712	31.694454005687	583.564187221958	920.942375429269	38.815739194283	380.910165486370	992.301588233918	35.799115096630	297.969138640803	1075.780594136936	97.396429696522	321.867168606023	1203.980791910291	44.491288855764	289.901910468291	881.464981425640	1085.600952318174	147.027954025837	942.838600871783	832.578895313932	144.463908164445	1060.257367039486	1093.062123749926	686.232485063396	1301.651787381063	1052.218219505899	622.573641547098	
40	57.670285714286	797.162895595636	1009.520033215211	431.605287266417	944.931809754651	1440.000190274860	249.880411376971	1063.741603296372	1370.929212292747	399.120652098925	994.568507022245	1439.420136086383	580.126692405761	938.242653097054	1496.097125570366	405.588020474146	1026.443711311327	940.452765875393	534.311394879717	1000.619654958441	964.173172912706	262.317363357475	1053.299959435774	731.570756378234	514.160363725525	966.862242624162	627.502469441363	579.622235386811	1043.225743963325	563.788486036730	505.335182818377	1027.726360045562	456.114291882290	525.592932742470	1064.515766171852	760.225407748494	293.165677852002	983.851845954472	636.579084250650	239.661825005880	1077.293173611141	566.680977174943	300.867829894840	1084.115717450389	496.733929519221	311.638749416292	1060.098605513100	423.060955930226	306.662841318639	975.231188555809	303.559225330834	261.375395664111	1033.481966444021	196.414897371762	332.384713000810	949.582751516393	391.425310663239	530.649607077536	827.774203745030	350.869613989384	587.903716716548	816.332615522785	241.502952438167	537.716073383992	616.727406515253	168.739999359349	500.608600856383	784.929183663584	123.633051793967	551.289467874394	674.988041389715	114.717264842065	577.847789627619	856.378569821721	30.945365324155	583.659608583230	913.298317391530	38.797753195613	380.822946688767	984.642133781770	35.673310941975	297.871572714996	1068.211373431542	97.196890198873	321.780025938272	1196.412650995422	44.113408396598	289.855673744179	888.989049908710	1085.908950824995	142.164622172809	961.985080025696	835.752418911070	139.746422373154	1050.098562270886	1091.232248253027	683.956376771449	1289.522256031456	1031.790693740517	623.635546287352	
41	57.682857142857	796.361342216633	1009.669287897541	428.608439253411	946.355400373435	1440.558205701021	247.646193473259	1063.696820388743	1371.242337693057	397.963737010363	992.885222973976	1439.410535389301	578.476240960951	938.214931188606	1496.534471782107	403.577328795723	1025.363585743991	941.091746368535	532.522847569866	1000.668348961895	964.421838589391	260.414870769906	1058.141136468609	734.156122102974	512.307109796008	975.146447006448	628.094812515732	578.092559026012	1053.303387040674	565.948081502155	503.648718725091	1039.423743892573	456.955109041105	524.383147781416	1062.645082104285	759.150311705562	290.696516916138	980.392733800616	636.552246746876	237.769496425353	1072.855002174052	565.705955434295	299.094899442204	1078.786733623552	495.906446372148	310.169988330789	1054.558706535713	422.425322701890	305.357484913848	969.150752707424	303.229052798465	260.310281939200	1026.640645457191	196.022271102501	331.851824965276	959.519607584847	392.883670547589	529.481537179656	836.322846957004	356.451377151099	586.805142378399	821.541331761089	247.321006893393	537.337842915792	620.172816813632	183.397070501237	500.482222416359	785.877163632434	129.039843156062	550.956321069345	675.533146061322	126.164833921508	577.700792770575	851.890841158773	30.567218143237	583.545004215804	905.655662454266	38.781212531033	380.722204536150	976.987157378969	35.556525063699	297.766248759486	1060.652296839880	96.992916383023	321.702146952791	1188.847688038079	43.725333775879	289.813188516108	896.778219907987	1086.097380877372	137.202278279628	981.482587434847	839.404534972616	135.114441520710	1039.842620717075	1089.408905777171	681.882306649565	1275.696273208924	1011.162609280030	624.953907375104	
